<?xml version="1.0" standalone="no"?>
<!DOCTYPE svg PUBLIC "-//W3C//DTD SVG 20010904//EN"
 "http://www.w3.org/TR/2001/REC-SVG-20010904/DTD/svg10.dtd">
<svg version="1.0" xmlns="http://www.w3.org/2000/svg"
 width="512.000000pt" height="512.000000pt" viewBox="0 0 512.000000 512.000000"
 preserveAspectRatio="xMidYMid meet">

<g transform="translate(0.000000,512.000000) scale(0.100000,-0.100000)"
fill="#000000" stroke="none">
<path d="M2455 5114 c-286 -47 -523 -239 -616 -503 -54 -154 -61 -309 -18
-462 38 -139 131 -286 235 -375 l55 -47 -55 -22 c-207 -84 -358 -256 -411
-466 l-17 -66 -51 35 c-45 30 -115 65 -169 85 -12 4 3 25 70 94 100 101 152
184 188 298 91 288 23 569 -188 783 -156 158 -351 231 -585 220 -329 -17 -602
-238 -695 -564 -32 -112 -32 -286 0 -398 43 -150 129 -285 245 -385 40 -34 45
-42 30 -47 -10 -3 -56 -24 -103 -47 -125 -61 -231 -169 -293 -298 -73 -150
-77 -185 -77 -657 0 -454 2 -473 64 -553 18 -24 52 -55 74 -69 33 -21 42 -33
51 -74 24 -103 115 -217 212 -267 87 -44 128 -49 431 -49 l287 0 7 -38 c60
-342 187 -594 416 -820 119 -118 224 -193 373 -266 235 -116 384 -151 650
-150 146 0 199 4 282 22 295 64 519 186 733 401 237 238 353 466 414 814 l7
37 289 0 c315 0 355 6 453 64 86 50 174 172 192 266 5 27 16 41 47 60 22 14
56 45 74 69 62 80 64 99 64 553 0 472 -4 507 -77 657 -62 129 -168 237 -293
298 -47 23 -93 44 -104 47 -15 5 -11 12 28 45 113 92 205 237 248 387 32 112
32 286 0 398 -73 256 -255 447 -507 532 -108 36 -276 45 -391 19 -328 -72
-560 -326 -605 -660 -20 -153 20 -342 102 -482 19 -32 73 -98 121 -146 68 -69
83 -89 70 -94 -54 -20 -124 -55 -169 -85 l-51 -35 -17 66 c-52 210 -205 382
-411 466 l-55 22 55 47 c104 89 197 236 235 374 112 404 -127 828 -531 942
-72 21 -249 34 -313 24z m223 -180 c211 -43 377 -191 448 -399 34 -101 38
-245 10 -340 -61 -206 -216 -361 -421 -421 -82 -24 -228 -22 -316 3 -198 58
-355 215 -415 418 -28 95 -24 239 10 339 33 98 65 152 128 221 84 93 189 151
323 180 81 18 142 18 233 -1z m-1616 -425 c141 -29 295 -136 378 -262 124
-190 124 -459 0 -645 -260 -389 -829 -354 -1036 63 -114 232 -70 490 116 677
82 83 179 138 284 164 65 16 189 17 258 3z m3256 -4 c219 -52 401 -240 448
-465 75 -357 -212 -710 -578 -710 -102 0 -167 14 -263 59 -145 68 -261 200
-311 356 -54 164 -28 359 66 502 80 122 225 225 362 259 72 17 200 17 276 -1z
m-1373 -940 c164 -43 304 -174 357 -335 19 -57 22 -93 26 -307 l4 -241 -131
65 -131 66 0 143 c0 136 -1 144 -24 170 -30 36 -86 39 -119 6 -20 -20 -22 -34
-25 -148 -4 -123 -4 -126 -25 -120 -176 42 -458 42 -634 0 -21 -6 -21 -3 -25
120 -3 114 -5 128 -25 148 -33 33 -89 30 -119 -6 -23 -26 -24 -34 -24 -170 l0
-143 -131 -66 -131 -65 4 241 c4 214 7 250 26 307 53 159 192 291 353 334 81
22 691 22 774 1z m-1594 -433 c86 -29 180 -92 230 -154 l39 -50 0 -187 0 -186
-85 -85 -85 -85 0 137 c0 147 -8 179 -47 197 -39 18 -63 13 -94 -18 l-29 -29
0 -270 0 -269 -39 -85 c-71 -154 -115 -326 -127 -503 l-7 -95 -271 0 c-281 0
-320 5 -377 43 -36 24 -99 101 -99 120 0 7 22 20 49 30 61 21 128 85 161 152
l25 50 0 418 0 419 -28 24 c-37 31 -81 31 -112 -1 l-25 -24 0 -386 c0 -415 -1
-426 -53 -473 -55 -51 -151 -32 -189 39 -17 31 -18 65 -18 429 0 439 5 486 61
591 79 147 208 239 377 269 26 5 189 7 362 6 294 -2 319 -4 381 -24z m3240 0
c130 -43 233 -130 298 -251 56 -105 61 -152 61 -591 0 -364 -1 -398 -18 -429
-38 -71 -134 -90 -189 -39 -52 47 -53 58 -53 473 l0 386 -25 24 c-34 35 -78
33 -116 -5 l-30 -29 3 -413 3 -413 25 -50 c33 -67 100 -131 161 -152 27 -10
49 -23 49 -30 0 -19 -63 -96 -99 -120 -57 -38 -96 -43 -377 -43 l-271 0 -7 95
c-12 177 -56 349 -127 503 l-39 85 0 269 0 270 -29 29 c-31 31 -59 36 -94 17
-43 -22 -46 -37 -47 -188 l0 -145 -85 85 -85 85 0 192 0 193 63 64 c39 39 88
75 128 95 113 55 158 61 514 57 297 -2 325 -4 386 -24z m-1761 -431 c379 -86
702 -337 874 -679 250 -496 145 -1101 -258 -1490 -183 -176 -389 -285 -646
-339 -117 -24 -363 -24 -480 0 -268 57 -472 166 -661 356 -204 203 -324 440
-365 721 -45 312 28 630 209 900 64 96 241 273 337 337 173 116 372 190 580
217 79 10 327 -4 410 -23z"/>
<path d="M2441 2550 c-274 -58 -475 -246 -542 -508 -48 -188 -4 -326 126 -395
53 -28 164 -30 215 -3 79 42 134 116 145 198 3 23 8 58 11 76 3 18 20 50 40
71 131 146 363 -14 274 -189 -25 -49 -59 -73 -135 -94 -81 -23 -135 -56 -184
-112 -61 -70 -84 -139 -85 -259 -1 -126 16 -176 83 -238 92 -86 206 -96 314
-27 45 29 89 90 102 143 6 21 23 35 79 64 97 50 227 181 279 280 51 98 77 204
77 318 0 373 -283 667 -655 680 -55 2 -120 0 -144 -5z m283 -190 c80 -27 142
-69 208 -138 217 -228 171 -601 -95 -773 -32 -21 -81 -45 -108 -54 -57 -19
-74 -41 -83 -105 -8 -53 -23 -76 -59 -89 -32 -12 -64 -2 -92 29 -17 19 -20 36
-19 104 1 129 37 175 171 215 165 49 263 185 251 352 -7 91 -43 163 -113 228
-66 59 -134 85 -225 85 -91 0 -159 -26 -225 -85 -66 -61 -103 -132 -114 -224
-6 -56 -13 -72 -35 -92 -37 -31 -71 -29 -107 6 -24 25 -29 38 -29 78 0 27 7
75 15 108 51 193 211 339 415 379 51 10 186 -3 244 -24z"/>
<path d="M2472 837 c-48 -15 -127 -90 -147 -139 -28 -68 -24 -155 11 -219 98
-182 350 -182 448 0 35 64 39 151 11 219 -21 52 -100 124 -153 140 -47 14
-124 14 -170 -1z m142 -179 c43 -40 36 -107 -15 -133 -61 -32 -123 8 -121 78
1 40 41 77 82 77 16 0 40 -10 54 -22z"/>
</g>
</svg>
