<?xml version="1.0" standalone="no"?>
<!DOCTYPE svg PUBLIC "-//W3C//DTD SVG 20010904//EN"
 "http://www.w3.org/TR/2001/REC-SVG-20010904/DTD/svg10.dtd">
<svg version="1.0" xmlns="http://www.w3.org/2000/svg"
 width="600.000000pt" height="600.000000pt" viewBox="0 0 600.000000 600.000000"
 preserveAspectRatio="xMidYMid meet">

<g transform="translate(0.000000,600.000000) scale(0.100000,-0.100000)"
fill="#000000" stroke="none">
<path d="M2780 5994 c-19 -2 -78 -9 -130 -15 -1284 -147 -2345 -1128 -2594
-2399 -41 -212 -51 -321 -51 -580 0 -259 10 -368 51 -580 125 -640 469 -1238
957 -1665 532 -467 1172 -724 1870 -752 l167 -6 -2 1169 -3 1169 -315 2 -315
2 0 373 0 373 316 3 317 2 5 363 c4 315 7 374 25 454 81 368 295 596 647 689
80 21 131 27 260 31 147 5 530 -10 583 -24 l22 -5 0 -333 0 -334 -262 -3
c-241 -3 -267 -5 -316 -25 -78 -32 -117 -66 -149 -130 l-28 -58 -3 -312 -3
-313 370 0 c295 0 371 -3 371 -13 0 -7 -13 -112 -29 -232 -16 -121 -37 -284
-47 -362 l-17 -143 -324 0 -323 0 0 -1110 c0 -673 4 -1110 9 -1110 5 0 69 21
143 46 851 295 1534 969 1838 1816 144 399 205 851 170 1263 -99 1153 -840
2141 -1920 2558 -202 78 -428 135 -680 173 -100 14 -529 27 -610 18z"/>
</g>
</svg>
