<?xml version="1.0" standalone="no"?>
<!DOCTYPE svg PUBLIC "-//W3C//DTD SVG 20010904//EN"
 "http://www.w3.org/TR/2001/REC-SVG-20010904/DTD/svg10.dtd">
<svg version="1.0" xmlns="http://www.w3.org/2000/svg"
 width="512.000000pt" height="512.000000pt" viewBox="0 0 512.000000 512.000000"
 preserveAspectRatio="xMidYMid meet">

<g transform="translate(0.000000,512.000000) scale(0.100000,-0.100000)"
fill="#000000" stroke="none">
<path d="M2050 4929 c-337 -17 -606 -44 -885 -89 -642 -103 -1024 -270 -1136
-497 l-24 -48 -3 -1338 -2 -1338 29 -30 c36 -36 70 -37 108 -5 l28 24 5 1151
5 1151 54 -36 c56 -38 188 -102 254 -123 l37 -13 0 -1533 0 -1534 -37 15
c-100 42 -183 93 -240 149 -66 66 -81 104 -68 166 9 38 72 109 135 151 59 40
70 55 70 95 0 44 -38 83 -80 83 -68 0 -218 -129 -267 -229 -37 -74 -39 -190
-6 -264 57 -124 209 -236 450 -331 110 -43 160 -46 191 -13 22 23 22 26 22
424 l0 400 77 21 c186 50 580 118 798 137 85 8 129 24 139 50 12 32 6 73 -15
99 -16 21 -29 26 -62 26 -115 0 -562 -67 -772 -115 -60 -14 -122 -28 -137 -32
l-28 -5 0 1165 c0 1095 -1 1166 -18 1185 -9 12 -62 37 -117 57 -212 78 -350
174 -376 263 -47 160 191 318 655 432 923 227 2535 227 3454 -1 587 -145 803
-364 549 -555 -67 -50 -148 -91 -279 -139 -57 -21 -102 -44 -115 -60 l-23 -26
0 -1160 c0 -637 -3 -1159 -7 -1159 -5 0 -53 11 -108 25 -224 55 -595 110 -895
134 -74 6 -163 14 -197 17 l-63 6 0 66 c-1 211 -117 401 -303 492 -346 170
-746 17 -859 -330 -18 -56 -22 -96 -26 -293 l-4 -227 -42 -18 c-53 -24 -104
-75 -130 -132 -20 -43 -21 -60 -21 -450 0 -317 3 -413 14 -444 19 -54 77 -115
136 -142 l50 -24 585 0 c372 0 599 4 622 10 57 16 119 69 150 129 l28 53 0
278 c0 312 -1 315 -72 327 -32 5 -41 1 -68 -25 l-30 -30 0 -262 0 -261 -25
-24 -24 -25 -570 0 -570 0 -28 24 -28 24 0 385 0 385 24 26 24 26 542 0 c352
0 553 4 572 10 44 16 53 42 55 165 l3 110 75 -3 c314 -14 846 -91 1108 -162
l82 -22 0 -390 c0 -328 2 -394 15 -418 29 -56 82 -53 243 12 212 87 354 195
410 314 l27 59 3 1315 c2 723 0 1330 -3 1348 -3 18 -15 42 -26 53 -26 26 -92
26 -119 -1 -20 -20 -20 -33 -20 -1328 0 -735 -4 -1324 -9 -1346 -5 -21 -22
-55 -38 -75 -38 -47 -150 -123 -238 -160 l-70 -30 -3 291 c-1 160 -1 293 1
295 2 2 25 -6 51 -17 51 -23 77 -20 114 13 15 14 22 32 22 57 0 48 -25 70
-118 106 l-72 28 2 1144 3 1144 105 47 c196 87 332 196 388 311 35 72 37 171
5 243 -27 57 -117 154 -189 202 -324 215 -960 350 -1859 395 -229 11 -766 11
-995 -1z m639 -2808 c124 -39 220 -122 263 -229 21 -52 23 -76 26 -280 l3
-222 -423 2 -423 3 0 60 0 60 298 5 299 5 24 28 c31 37 31 81 -1 112 -28 29
-30 29 -392 25 l-233 -2 0 29 c0 56 22 148 48 202 48 97 160 184 270 210 66
16 176 12 241 -8z"/>
<path d="M3248 4401 c-194 -50 -321 -232 -305 -435 5 -55 15 -88 45 -147 l38
-76 -52 -56 c-55 -59 -107 -156 -119 -219 -6 -33 -3 -41 23 -68 55 -55 116
-36 147 47 35 92 73 139 162 197 85 56 89 113 12 175 -59 48 -83 102 -84 186
0 59 4 77 28 118 84 142 270 164 384 45 43 -45 63 -96 63 -163 0 -74 -20 -117
-85 -186 -81 -85 -77 -116 25 -184 99 -66 152 -154 166 -273 8 -72 34 -102 88
-102 67 1 92 50 76 152 -17 114 -62 205 -146 298 l-32 36 36 74 c36 72 37 77
37 184 0 100 -3 117 -27 169 -55 118 -179 213 -307 237 -71 13 -93 12 -173 -9z"/>
<path d="M2120 4400 c-359 -17 -793 -59 -829 -82 -39 -24 -41 -48 -41 -444 0
-421 2 -437 57 -450 14 -4 96 0 182 10 289 30 662 56 829 56 43 0 58 5 77 25
l25 24 0 409 0 409 -24 22 c-30 29 -59 31 -276 21z m130 -454 l0 -284 -82 -6
c-46 -3 -137 -8 -203 -11 -111 -6 -370 -27 -492 -42 l-53 -6 0 286 0 287 23 4
c34 7 215 24 377 36 80 6 163 12 185 13 22 2 86 4 143 5 l102 2 0 -284z"/>
<path d="M2473 3121 c-48 -22 -58 -96 -18 -136 23 -24 30 -25 152 -25 296 0
820 -32 1076 -66 94 -12 112 -12 137 1 48 25 57 96 16 134 -21 19 -47 25 -192
42 -369 42 -1116 74 -1171 50z"/>
<path d="M1960 3113 c-288 -16 -645 -57 -675 -77 -30 -20 -40 -67 -23 -103 24
-50 46 -53 223 -33 88 10 230 23 315 29 277 20 281 21 306 46 34 34 32 79 -5
116 -20 20 -38 28 -58 27 -15 -1 -53 -3 -83 -5z"/>
<path d="M1383 2642 c-67 -24 -118 -64 -154 -120 -101 -159 -41 -361 130 -440
46 -21 63 -24 135 -20 99 6 145 27 209 98 104 116 103 283 -4 404 -70 80 -212
115 -316 78z m157 -170 c119 -63 74 -242 -61 -242 -42 0 -55 5 -85 33 -31 28
-37 41 -41 83 -9 108 92 176 187 126z"/>
<path d="M3230 2550 c-43 -43 -33 -119 18 -139 15 -5 97 -17 182 -26 85 -8
221 -25 303 -36 138 -20 149 -20 172 -5 49 32 54 94 12 134 -24 22 -110 37
-417 72 -220 25 -245 25 -270 0z"/>
<path d="M2399 951 c-32 -33 -36 -58 -14 -100 15 -29 33 -41 65 -41 16 0 19
-11 22 -111 3 -107 4 -112 31 -135 37 -31 81 -31 112 1 24 23 25 31 25 135 0
109 0 110 24 110 13 0 35 9 50 21 36 28 37 89 1 124 -23 24 -29 25 -155 25
l-132 0 -29 -29z"/>
</g>
</svg>
