<?xml version="1.0" standalone="no"?>
<!DOCTYPE svg PUBLIC "-//W3C//DTD SVG 20010904//EN"
 "http://www.w3.org/TR/2001/REC-SVG-20010904/DTD/svg10.dtd">
<svg version="1.0" xmlns="http://www.w3.org/2000/svg"
 width="512.000000pt" height="512.000000pt" viewBox="0 0 512.000000 512.000000"
 preserveAspectRatio="xMidYMid meet">

<g transform="translate(0.000000,512.000000) scale(0.100000,-0.100000)"
fill="#000000" stroke="none">
<path d="M2260 4838 c-84 -43 -95 -67 -169 -363 l-67 -267 -124 -54 c-69 -30
-134 -54 -144 -54 -11 0 -119 58 -240 129 -130 76 -240 134 -266 140 -53 12
-118 0 -166 -30 -49 -30 -322 -322 -339 -363 -17 -41 -20 -122 -5 -162 6 -15
70 -124 141 -241 105 -171 130 -220 126 -241 -7 -39 -93 -243 -109 -257 -7 -7
-119 -38 -248 -70 -255 -63 -293 -77 -335 -127 -52 -61 -55 -79 -55 -328 0
-252 3 -268 59 -332 43 -50 95 -68 351 -128 124 -29 231 -58 238 -65 15 -14
101 -217 109 -256 4 -21 -22 -73 -125 -245 -135 -228 -157 -279 -146 -342 12
-68 41 -106 201 -264 168 -167 200 -188 280 -188 63 1 91 14 332 164 113 69
208 126 212 126 3 0 62 -22 130 -50 160 -64 191 -64 225 1 29 57 1 110 -66
124 -19 4 -75 25 -125 47 -106 46 -158 55 -211 38 -21 -7 -137 -73 -258 -146
-121 -74 -226 -134 -234 -134 -8 0 -79 62 -158 137 -110 104 -144 142 -144
161 0 14 58 124 129 246 71 122 134 240 140 264 15 54 7 98 -36 192 -19 41
-48 107 -64 146 -32 77 -74 125 -129 147 -19 8 -138 38 -264 68 -126 29 -237
60 -247 69 -16 13 -18 37 -21 217 -2 137 1 206 8 213 6 6 123 40 260 75 137
36 261 70 277 76 39 16 91 80 107 131 7 24 33 86 57 139 36 80 43 106 43 158
0 74 -1 76 -160 338 -66 108 -120 206 -120 216 0 10 59 81 133 158 105 111
137 139 159 139 17 0 105 -46 230 -119 266 -155 261 -152 324 -152 42 0 74 9
142 39 48 22 116 53 152 70 62 27 111 70 132 117 5 11 35 129 67 263 33 137
65 250 74 259 12 13 52 16 214 20 185 5 199 4 215 -13 9 -11 43 -126 78 -263
33 -134 67 -256 75 -271 21 -41 77 -85 131 -105 27 -10 95 -38 151 -61 109
-47 155 -53 219 -30 22 8 135 73 253 145 118 72 221 131 230 131 24 0 301
-281 301 -306 0 -12 -57 -118 -127 -235 -75 -126 -132 -235 -140 -264 -15 -60
-7 -100 51 -235 58 -135 69 -154 97 -164 55 -19 119 22 119 76 0 31 -35 129
-74 206 -14 28 -26 58 -26 66 0 8 62 117 137 243 131 217 137 231 141 290 7
102 -4 121 -176 295 -93 95 -172 166 -197 178 -49 24 -140 27 -188 6 -18 -7
-126 -70 -240 -141 -167 -101 -214 -126 -235 -122 -40 8 -243 94 -258 109 -7
7 -40 121 -74 253 -36 142 -72 257 -86 283 -17 28 -43 52 -77 72 l-52 30 -240
0 c-230 0 -243 -1 -285 -22z"/>
<path d="M2415 3599 c-254 -37 -506 -180 -668 -379 -86 -107 -168 -270 -204
-405 -23 -88 -26 -119 -26 -260 0 -141 3 -172 26 -260 28 -106 111 -285 152
-329 31 -33 95 -36 125 -6 39 39 37 67 -14 162 -90 168 -123 307 -113 486 19
365 251 664 607 784 91 31 102 32 255 33 190 0 259 -16 415 -95 53 -28 102
-50 109 -50 26 0 69 31 80 58 27 64 -3 99 -134 162 -196 94 -407 128 -610 99z"/>
<path d="M3310 3028 c-62 -32 -82 -68 -126 -227 l-38 -139 -70 -31 -69 -31
-121 74 c-133 82 -182 100 -237 87 -48 -11 -51 -13 -142 -95 -100 -90 -132
-142 -131 -212 1 -47 10 -67 78 -184 l78 -132 -32 -72 -32 -72 -136 -33 c-153
-38 -175 -47 -214 -88 -40 -43 -51 -94 -47 -235 4 -113 6 -128 29 -160 35 -52
69 -69 224 -108 l139 -36 28 -72 29 -71 -80 -132 c-71 -117 -80 -137 -80 -181
0 -73 20 -108 117 -207 138 -140 179 -143 379 -24 l126 75 62 -27 c33 -15 66
-32 72 -37 7 -5 26 -68 44 -141 36 -145 47 -171 82 -204 45 -43 89 -53 224
-53 118 0 130 2 170 25 59 35 78 71 115 220 17 72 36 135 41 141 9 12 116 54
137 54 6 0 63 -32 127 -71 195 -121 237 -117 386 30 148 147 151 181 32 381
l-74 126 29 68 c15 37 32 71 37 76 5 4 65 20 134 35 156 34 199 57 234 127 24
47 26 63 26 174 0 133 -7 164 -48 207 -39 42 -65 53 -207 88 l-128 32 -28 63
c-16 35 -29 70 -29 77 0 8 34 71 76 140 69 114 77 132 78 180 1 70 -29 119
-131 219 -129 125 -172 126 -372 8 l-118 -71 -64 27 c-35 15 -69 32 -76 38 -6
6 -23 67 -38 136 -32 144 -41 166 -89 208 -48 42 -91 52 -221 52 -95 0 -117
-3 -155 -22z m272 -156 c6 -6 24 -68 40 -138 43 -189 52 -200 197 -265 133
-59 157 -56 326 44 l130 76 68 -67 c37 -36 67 -73 67 -80 0 -8 -29 -63 -65
-122 -73 -122 -95 -168 -95 -204 0 -27 63 -196 87 -232 26 -40 76 -63 211 -98
72 -19 135 -37 141 -41 16 -9 14 -190 -1 -202 -7 -6 -71 -25 -143 -42 -188
-47 -206 -61 -269 -213 -54 -131 -51 -151 60 -324 35 -56 64 -105 64 -110 0
-15 -134 -144 -149 -144 -8 0 -71 35 -140 77 -112 69 -130 77 -176 77 -72 1
-208 -56 -261 -108 -37 -37 -43 -52 -68 -151 -15 -60 -31 -127 -37 -147 l-10
-38 -92 0 c-51 0 -98 4 -105 9 -8 4 -29 69 -47 144 -18 74 -38 143 -43 153
-21 40 -70 74 -161 115 -131 58 -152 55 -314 -44 -68 -43 -128 -77 -131 -77
-10 0 -105 91 -128 122 l-19 28 70 113 c81 131 91 154 91 208 0 42 -69 220
-98 252 -28 31 -81 53 -202 82 -165 40 -154 29 -147 143 3 52 10 98 16 101 5
4 70 21 144 39 167 42 191 59 249 181 33 69 41 98 42 146 1 57 -3 66 -72 184
-39 68 -72 131 -72 140 0 18 121 141 138 141 6 0 60 -31 122 -70 170 -105 187
-108 340 -49 129 49 149 74 190 240 18 74 37 143 43 153 8 17 18 18 104 13 53
-3 100 -10 105 -15z"/>
<path d="M3355 2198 c-89 -16 -210 -83 -280 -153 -218 -217 -216 -565 4 -784
302 -301 815 -160 921 254 25 99 25 181 0 279 -26 103 -69 177 -149 256 -130
128 -313 183 -496 148z m216 -184 c277 -81 365 -419 162 -625 -243 -249 -666
-57 -641 292 17 238 250 400 479 333z"/>
</g>
</svg>
