<?xml version="1.0" standalone="no"?>
<!DOCTYPE svg PUBLIC "-//W3C//DTD SVG 20010904//EN"
 "http://www.w3.org/TR/2001/REC-SVG-20010904/DTD/svg10.dtd">
<svg version="1.0" xmlns="http://www.w3.org/2000/svg"
 width="600.000000pt" height="600.000000pt" viewBox="0 0 600.000000 600.000000"
 preserveAspectRatio="xMidYMid meet">

<g transform="translate(0.000000,600.000000) scale(0.100000,-0.100000)"
fill="#000000" stroke="none">
<path d="M2735 5989 c-1170 -102 -2188 -898 -2570 -2010 -375 -1089 -98 -2286
715 -3099 813 -813 2010 -1090 3099 -715 867 298 1558 989 1856 1856 375 1089
98 2286 -715 3099 -629 629 -1498 945 -2385 869z m865 -2464 l0 -2105 -600 0
-600 0 0 2105 0 2105 600 0 600 0 0 -2105z m194 -2320 c69 -25 121 -81 142
-150 9 -31 14 -58 12 -59 -1 -2 -55 -7 -119 -10 l-116 -7 -6 30 c-16 78 -175
99 -193 25 -10 -41 19 -59 151 -92 202 -50 271 -95 301 -197 36 -125 -34 -256
-165 -306 -79 -30 -224 -37 -324 -15 -93 21 -146 57 -186 128 -26 45 -49 124
-39 132 1 2 55 7 119 10 l117 7 6 -34 c15 -78 119 -122 196 -82 52 27 53 103
2 129 -15 7 -71 26 -126 40 -166 44 -232 84 -267 161 -61 133 26 270 192 305
68 14 246 5 303 -15z m-1434 -80 l0 -95 -125 0 -125 0 0 -305 0 -305 -125 0
-125 0 0 305 0 305 -125 0 -125 0 0 95 0 95 375 0 375 0 0 -95z m780 0 l0 -95
-210 0 -210 0 0 -55 0 -55 195 0 195 0 0 -80 0 -80 -195 0 -195 0 0 -75 0 -75
215 0 215 0 0 -95 0 -95 -340 0 -340 0 0 400 0 400 335 0 335 0 0 -95z m1220
-305 l0 -400 -125 0 -125 0 0 400 0 400 125 0 125 0 0 -400z"/>
</g>
</svg>
